<svg xmlns="http://www.w3.org/2000/svg" viewBox="0 0 120 120">
  <defs>
    <linearGradient id="bg" x1="0%" y1="0%" x2="100%" y2="100%">
      <stop offset="0%" style="stop-color:#0f2027"/>
      <stop offset="100%" style="stop-color:#203a43"/>
    </linearGradient>
  </defs>
  <circle cx="60" cy="60" r="60" fill="url(#bg)"/>
  <!-- Shield -->
  <path d="M60 20 L85 32 L85 58 C85 74 72 84 60 90 C48 84 35 74 35 58 L35 32 Z" fill="none" stroke="#00ff88" stroke-width="2.5" stroke-linejoin="round"/>
  <!-- Lock inside shield -->
  <rect x="52" y="54" width="16" height="14" rx="2" fill="#00ff88" opacity="0.9"/>
  <path d="M54 54 L54 49 C54 44.5 66 44.5 66 49 L66 54" fill="none" stroke="#00ff88" stroke-width="2.5" stroke-linecap="round"/>
  <circle cx="60" cy="61" r="2" fill="#0f2027"/>
  <!-- Scan lines -->
  <line x1="35" y1="44" x2="85" y2="44" stroke="#00ff88" stroke-width="0.5" opacity="0.3"/>
  <line x1="35" y1="72" x2="85" y2="72" stroke="#00ff88" stroke-width="0.5" opacity="0.3"/>
  <!-- Corner brackets -->
  <path d="M20 20 L20 30 M20 20 L30 20" stroke="#00ff88" stroke-width="1.5" stroke-linecap="round" opacity="0.6"/>
  <path d="M100 20 L100 30 M100 20 L90 20" stroke="#00ff88" stroke-width="1.5" stroke-linecap="round" opacity="0.6"/>
  <path d="M20 100 L20 90 M20 100 L30 100" stroke="#00ff88" stroke-width="1.5" stroke-linecap="round" opacity="0.6"/>
  <path d="M100 100 L100 90 M100 100 L90 100" stroke="#00ff88" stroke-width="1.5" stroke-linecap="round" opacity="0.6"/>
</svg>
